<mxfile host="app.diagrams.net" modified="2022-09-13T19:04:34.797Z" agent="5.0 (Macintosh; Intel Mac OS X 10_15_7) AppleWebKit/537.36 (KHTML, like Gecko) Chrome/105.0.0.0 Safari/537.36" etag="g7gmN1kdzUyn6Xh2jqxF" version="20.2.3" type="github">
  <diagram id="2DszsBFeUOpS91-YmSOk" name="Page-1">
    <mxGraphModel dx="3369" dy="1071" grid="1" gridSize="10" guides="1" tooltips="1" connect="1" arrows="1" fold="1" page="1" pageScale="1" pageWidth="827" pageHeight="1169" math="0" shadow="0">
      <root>
        <mxCell id="0" />
        <mxCell id="1" parent="0" />
        <mxCell id="6C_QwbLZkk2q1W2Ni-J5-1" value="" style="rounded=0;whiteSpace=wrap;html=1;fillColor=default;" vertex="1" parent="1">
          <mxGeometry x="-1200" y="160" width="1300" height="1440" as="geometry" />
        </mxCell>
        <mxCell id="6C_QwbLZkk2q1W2Ni-J5-2" value="" style="rounded=0;whiteSpace=wrap;html=1;" vertex="1" parent="1">
          <mxGeometry x="-1200" y="160" width="1300" height="120" as="geometry" />
        </mxCell>
        <mxCell id="6C_QwbLZkk2q1W2Ni-J5-3" value="" style="ellipse;whiteSpace=wrap;html=1;aspect=fixed;" vertex="1" parent="1">
          <mxGeometry x="-1160" y="175" width="90" height="90" as="geometry" />
        </mxCell>
        <mxCell id="6C_QwbLZkk2q1W2Ni-J5-4" value="&lt;h1&gt;&lt;font style=&quot;font-size: 48px;&quot;&gt;E-Bay&lt;/font&gt;&lt;/h1&gt;" style="text;html=1;strokeColor=none;fillColor=none;spacing=5;spacingTop=-20;whiteSpace=wrap;overflow=hidden;rounded=0;" vertex="1" parent="1">
          <mxGeometry x="-1030" y="185" width="170" height="65" as="geometry" />
        </mxCell>
        <mxCell id="6C_QwbLZkk2q1W2Ni-J5-5" value="" style="rounded=0;whiteSpace=wrap;html=1;fontSize=36;" vertex="1" parent="1">
          <mxGeometry x="-855" y="192.5" width="470" height="50" as="geometry" />
        </mxCell>
        <mxCell id="6C_QwbLZkk2q1W2Ni-J5-7" value="" style="shape=image;html=1;verticalAlign=top;verticalLabelPosition=bottom;labelBackgroundColor=#ffffff;imageAspect=0;aspect=fixed;image=https://cdn4.iconfinder.com/data/icons/evil-icons-user-interface/64/magnifier-128.png;fontSize=36;" vertex="1" parent="1">
          <mxGeometry x="-436" y="192.5" width="45" height="45" as="geometry" />
        </mxCell>
        <mxCell id="6C_QwbLZkk2q1W2Ni-J5-8" value="&lt;font style=&quot;font-size: 24px;&quot;&gt;Logo&lt;/font&gt;" style="text;html=1;strokeColor=none;fillColor=none;align=center;verticalAlign=middle;whiteSpace=wrap;rounded=0;fontSize=48;" vertex="1" parent="1">
          <mxGeometry x="-1120" y="195" width="10" height="30" as="geometry" />
        </mxCell>
        <mxCell id="6C_QwbLZkk2q1W2Ni-J5-9" value="" style="whiteSpace=wrap;html=1;aspect=fixed;fontSize=24;fillColor=default;" vertex="1" parent="1">
          <mxGeometry x="-350" y="190" width="55" height="55" as="geometry" />
        </mxCell>
        <mxCell id="6C_QwbLZkk2q1W2Ni-J5-10" value="" style="whiteSpace=wrap;html=1;aspect=fixed;fontSize=24;fillColor=default;" vertex="1" parent="1">
          <mxGeometry x="-270" y="190" width="55" height="55" as="geometry" />
        </mxCell>
        <mxCell id="6C_QwbLZkk2q1W2Ni-J5-11" value="" style="whiteSpace=wrap;html=1;aspect=fixed;fontSize=24;fillColor=default;" vertex="1" parent="1">
          <mxGeometry x="-190" y="192.5" width="55" height="55" as="geometry" />
        </mxCell>
        <mxCell id="6C_QwbLZkk2q1W2Ni-J5-12" value="" style="whiteSpace=wrap;html=1;aspect=fixed;fontSize=24;fillColor=default;" vertex="1" parent="1">
          <mxGeometry x="-110" y="192.5" width="55" height="55" as="geometry" />
        </mxCell>
        <mxCell id="6C_QwbLZkk2q1W2Ni-J5-13" value="" style="rounded=0;whiteSpace=wrap;html=1;fontSize=24;fillColor=default;" vertex="1" parent="1">
          <mxGeometry x="-40" y="190" width="120" height="55" as="geometry" />
        </mxCell>
        <mxCell id="6C_QwbLZkk2q1W2Ni-J5-18" value="" style="rounded=0;whiteSpace=wrap;html=1;fontSize=24;fillColor=default;" vertex="1" parent="1">
          <mxGeometry x="-1200" y="360" width="1300" height="390" as="geometry" />
        </mxCell>
        <mxCell id="6C_QwbLZkk2q1W2Ni-J5-19" value="&lt;font style=&quot;font-size: 36px;&quot;&gt;Carousel&lt;/font&gt;" style="text;html=1;strokeColor=none;fillColor=none;align=center;verticalAlign=middle;whiteSpace=wrap;rounded=0;fontSize=24;" vertex="1" parent="1">
          <mxGeometry x="-610" y="530" width="100" height="30" as="geometry" />
        </mxCell>
        <mxCell id="6C_QwbLZkk2q1W2Ni-J5-20" value="" style="whiteSpace=wrap;html=1;aspect=fixed;fontSize=36;fillColor=default;" vertex="1" parent="1">
          <mxGeometry x="-1110" y="860" width="220" height="220" as="geometry" />
        </mxCell>
        <mxCell id="6C_QwbLZkk2q1W2Ni-J5-21" value="" style="rounded=0;whiteSpace=wrap;html=1;fontSize=36;fillColor=default;" vertex="1" parent="1">
          <mxGeometry x="-1110" y="1099" width="220" height="70" as="geometry" />
        </mxCell>
        <mxCell id="6C_QwbLZkk2q1W2Ni-J5-22" value="" style="whiteSpace=wrap;html=1;aspect=fixed;fontSize=36;fillColor=default;" vertex="1" parent="1">
          <mxGeometry x="-800" y="860" width="220" height="220" as="geometry" />
        </mxCell>
        <mxCell id="6C_QwbLZkk2q1W2Ni-J5-23" value="" style="rounded=0;whiteSpace=wrap;html=1;fontSize=36;fillColor=default;" vertex="1" parent="1">
          <mxGeometry x="-800" y="1100" width="220" height="70" as="geometry" />
        </mxCell>
        <mxCell id="6C_QwbLZkk2q1W2Ni-J5-24" value="" style="whiteSpace=wrap;html=1;aspect=fixed;fontSize=36;fillColor=default;" vertex="1" parent="1">
          <mxGeometry x="-490" y="860" width="220" height="220" as="geometry" />
        </mxCell>
        <mxCell id="6C_QwbLZkk2q1W2Ni-J5-25" value="" style="rounded=0;whiteSpace=wrap;html=1;fontSize=36;fillColor=default;" vertex="1" parent="1">
          <mxGeometry x="-490" y="1099" width="223" height="70" as="geometry" />
        </mxCell>
        <mxCell id="6C_QwbLZkk2q1W2Ni-J5-26" value="" style="whiteSpace=wrap;html=1;aspect=fixed;fontSize=36;fillColor=default;" vertex="1" parent="1">
          <mxGeometry x="-180" y="860" width="220" height="220" as="geometry" />
        </mxCell>
        <mxCell id="6C_QwbLZkk2q1W2Ni-J5-27" value="" style="rounded=0;whiteSpace=wrap;html=1;fontSize=36;fillColor=default;" vertex="1" parent="1">
          <mxGeometry x="-180" y="1100" width="220" height="70" as="geometry" />
        </mxCell>
        <mxCell id="6C_QwbLZkk2q1W2Ni-J5-28" value="Image" style="text;html=1;strokeColor=none;fillColor=none;align=center;verticalAlign=middle;whiteSpace=wrap;rounded=0;fontSize=36;" vertex="1" parent="1">
          <mxGeometry x="-1030" y="955" width="60" height="30" as="geometry" />
        </mxCell>
        <mxCell id="6C_QwbLZkk2q1W2Ni-J5-30" value="Description" style="text;html=1;strokeColor=none;fillColor=none;align=center;verticalAlign=middle;whiteSpace=wrap;rounded=0;fontSize=36;" vertex="1" parent="1">
          <mxGeometry x="-1030" y="1120" width="60" height="30" as="geometry" />
        </mxCell>
        <mxCell id="6C_QwbLZkk2q1W2Ni-J5-31" value="Description" style="text;html=1;strokeColor=none;fillColor=none;align=center;verticalAlign=middle;whiteSpace=wrap;rounded=0;fontSize=36;" vertex="1" parent="1">
          <mxGeometry x="-408.5" y="1120" width="60" height="30" as="geometry" />
        </mxCell>
        <mxCell id="6C_QwbLZkk2q1W2Ni-J5-32" style="edgeStyle=orthogonalEdgeStyle;rounded=0;orthogonalLoop=1;jettySize=auto;html=1;exitX=0;exitY=0.25;exitDx=0;exitDy=0;entryX=0;entryY=0.5;entryDx=0;entryDy=0;fontSize=36;" edge="1" parent="1" source="6C_QwbLZkk2q1W2Ni-J5-31" target="6C_QwbLZkk2q1W2Ni-J5-31">
          <mxGeometry relative="1" as="geometry" />
        </mxCell>
        <mxCell id="6C_QwbLZkk2q1W2Ni-J5-33" value="Description" style="text;html=1;strokeColor=none;fillColor=none;align=center;verticalAlign=middle;whiteSpace=wrap;rounded=0;fontSize=36;" vertex="1" parent="1">
          <mxGeometry x="-100" y="1120" width="60" height="30" as="geometry" />
        </mxCell>
        <mxCell id="6C_QwbLZkk2q1W2Ni-J5-34" value="Description" style="text;html=1;strokeColor=none;fillColor=none;align=center;verticalAlign=middle;whiteSpace=wrap;rounded=0;fontSize=36;" vertex="1" parent="1">
          <mxGeometry x="-720" y="1120" width="60" height="30" as="geometry" />
        </mxCell>
        <mxCell id="6C_QwbLZkk2q1W2Ni-J5-35" value="Image" style="text;html=1;strokeColor=none;fillColor=none;align=center;verticalAlign=middle;whiteSpace=wrap;rounded=0;fontSize=36;" vertex="1" parent="1">
          <mxGeometry x="-710" y="955" width="60" height="30" as="geometry" />
        </mxCell>
        <mxCell id="6C_QwbLZkk2q1W2Ni-J5-36" value="Image" style="text;html=1;strokeColor=none;fillColor=none;align=center;verticalAlign=middle;whiteSpace=wrap;rounded=0;fontSize=36;" vertex="1" parent="1">
          <mxGeometry x="-413" y="955" width="60" height="30" as="geometry" />
        </mxCell>
        <mxCell id="6C_QwbLZkk2q1W2Ni-J5-37" value="Image" style="text;html=1;strokeColor=none;fillColor=none;align=center;verticalAlign=middle;whiteSpace=wrap;rounded=0;fontSize=36;" vertex="1" parent="1">
          <mxGeometry x="-110" y="950" width="60" height="30" as="geometry" />
        </mxCell>
        <mxCell id="6C_QwbLZkk2q1W2Ni-J5-38" value="" style="rounded=0;whiteSpace=wrap;html=1;fontSize=36;fillColor=default;" vertex="1" parent="1">
          <mxGeometry x="-1100" y="1450" width="510" height="50" as="geometry" />
        </mxCell>
        <mxCell id="6C_QwbLZkk2q1W2Ni-J5-39" value="" style="rounded=0;whiteSpace=wrap;html=1;fontSize=36;fillColor=default;" vertex="1" parent="1">
          <mxGeometry x="-1100" y="1330" width="510" height="50" as="geometry" />
        </mxCell>
        <mxCell id="6C_QwbLZkk2q1W2Ni-J5-40" value="" style="rounded=0;whiteSpace=wrap;html=1;fontSize=36;fillColor=default;" vertex="1" parent="1">
          <mxGeometry x="-497.5" y="1450" width="510" height="50" as="geometry" />
        </mxCell>
        <mxCell id="6C_QwbLZkk2q1W2Ni-J5-41" value="" style="rounded=0;whiteSpace=wrap;html=1;fontSize=36;fillColor=default;" vertex="1" parent="1">
          <mxGeometry x="-497.5" y="1330" width="510" height="50" as="geometry" />
        </mxCell>
        <mxCell id="6C_QwbLZkk2q1W2Ni-J5-45" value="" style="line;strokeWidth=2;html=1;fontSize=36;fillColor=default;" vertex="1" parent="1">
          <mxGeometry x="-1200" y="1250" width="1300" height="10" as="geometry" />
        </mxCell>
        <mxCell id="6C_QwbLZkk2q1W2Ni-J5-46" value="" style="line;strokeWidth=2;html=1;fontSize=36;fillColor=default;" vertex="1" parent="1">
          <mxGeometry x="-1195" y="1590" width="1295" height="10" as="geometry" />
        </mxCell>
        <mxCell id="6C_QwbLZkk2q1W2Ni-J5-47" value="Text" style="text;html=1;strokeColor=none;fillColor=none;align=center;verticalAlign=middle;whiteSpace=wrap;rounded=0;fontSize=36;" vertex="1" parent="1">
          <mxGeometry x="-890" y="1340" width="60" height="30" as="geometry" />
        </mxCell>
        <mxCell id="6C_QwbLZkk2q1W2Ni-J5-48" value="Text" style="text;html=1;strokeColor=none;fillColor=none;align=center;verticalAlign=middle;whiteSpace=wrap;rounded=0;fontSize=36;" vertex="1" parent="1">
          <mxGeometry x="-275" y="1340" width="60" height="30" as="geometry" />
        </mxCell>
        <mxCell id="6C_QwbLZkk2q1W2Ni-J5-49" value="Text" style="text;html=1;strokeColor=none;fillColor=none;align=center;verticalAlign=middle;whiteSpace=wrap;rounded=0;fontSize=36;" vertex="1" parent="1">
          <mxGeometry x="-890" y="1460" width="60" height="30" as="geometry" />
        </mxCell>
        <mxCell id="6C_QwbLZkk2q1W2Ni-J5-50" value="Text" style="text;html=1;strokeColor=none;fillColor=none;align=center;verticalAlign=middle;whiteSpace=wrap;rounded=0;fontSize=36;" vertex="1" parent="1">
          <mxGeometry x="-275" y="1460" width="60" height="30" as="geometry" />
        </mxCell>
        <mxCell id="6C_QwbLZkk2q1W2Ni-J5-52" value="" style="rounded=0;whiteSpace=wrap;html=1;fontSize=36;fillColor=default;" vertex="1" parent="1">
          <mxGeometry x="-1200" y="1754" width="1300" height="1646" as="geometry" />
        </mxCell>
        <mxCell id="6C_QwbLZkk2q1W2Ni-J5-53" value="PAGE-2 CONTINUES" style="text;html=1;strokeColor=none;fillColor=none;align=center;verticalAlign=middle;whiteSpace=wrap;rounded=0;fontSize=36;" vertex="1" parent="1">
          <mxGeometry x="-580" y="1660" width="60" height="30" as="geometry" />
        </mxCell>
        <mxCell id="6C_QwbLZkk2q1W2Ni-J5-59" value="" style="rounded=0;whiteSpace=wrap;html=1;fontSize=36;fillColor=default;" vertex="1" parent="1">
          <mxGeometry x="-1130" y="1820" width="1170" height="370" as="geometry" />
        </mxCell>
        <mxCell id="6C_QwbLZkk2q1W2Ni-J5-60" value="" style="whiteSpace=wrap;html=1;aspect=fixed;fontSize=36;fillColor=default;" vertex="1" parent="1">
          <mxGeometry x="-1080" y="1870" width="270" height="270" as="geometry" />
        </mxCell>
        <mxCell id="6C_QwbLZkk2q1W2Ni-J5-64" value="" style="rounded=0;whiteSpace=wrap;html=1;fontSize=36;fillColor=default;" vertex="1" parent="1">
          <mxGeometry x="-750" y="1870" width="730" height="270" as="geometry" />
        </mxCell>
        <mxCell id="6C_QwbLZkk2q1W2Ni-J5-65" value="Text" style="text;html=1;strokeColor=none;fillColor=none;align=center;verticalAlign=middle;whiteSpace=wrap;rounded=0;fontSize=36;" vertex="1" parent="1">
          <mxGeometry x="-430" y="1980" width="60" height="30" as="geometry" />
        </mxCell>
        <mxCell id="6C_QwbLZkk2q1W2Ni-J5-66" value="GIF" style="text;html=1;strokeColor=none;fillColor=none;align=center;verticalAlign=middle;whiteSpace=wrap;rounded=0;fontSize=36;" vertex="1" parent="1">
          <mxGeometry x="-975" y="1980" width="60" height="30" as="geometry" />
        </mxCell>
        <mxCell id="6C_QwbLZkk2q1W2Ni-J5-68" value="" style="rounded=0;whiteSpace=wrap;html=1;fontSize=36;fillColor=default;" vertex="1" parent="1">
          <mxGeometry x="-1130" y="2300" width="1170" height="350" as="geometry" />
        </mxCell>
        <mxCell id="6C_QwbLZkk2q1W2Ni-J5-69" value="GIF" style="whiteSpace=wrap;html=1;aspect=fixed;fontSize=36;fillColor=default;" vertex="1" parent="1">
          <mxGeometry x="-280" y="2338" width="270" height="270" as="geometry" />
        </mxCell>
        <mxCell id="6C_QwbLZkk2q1W2Ni-J5-70" value="Text" style="rounded=0;whiteSpace=wrap;html=1;fontSize=36;fillColor=default;" vertex="1" parent="1">
          <mxGeometry x="-1090" y="2340" width="770" height="270" as="geometry" />
        </mxCell>
        <mxCell id="6C_QwbLZkk2q1W2Ni-J5-71" value="" style="line;strokeWidth=2;html=1;fontSize=36;fillColor=default;" vertex="1" parent="1">
          <mxGeometry x="-1200" y="2770" width="1300" height="10" as="geometry" />
        </mxCell>
        <mxCell id="6C_QwbLZkk2q1W2Ni-J5-72" value="" style="rounded=0;whiteSpace=wrap;html=1;fontSize=36;fillColor=default;" vertex="1" parent="1">
          <mxGeometry x="-1200" y="3080" width="1300" height="320" as="geometry" />
        </mxCell>
        <mxCell id="6C_QwbLZkk2q1W2Ni-J5-73" value="SOCIAL MEDIA LINKS" style="rounded=0;whiteSpace=wrap;html=1;fontSize=36;fillColor=default;" vertex="1" parent="1">
          <mxGeometry x="-713" y="3160" width="360" height="150" as="geometry" />
        </mxCell>
        <mxCell id="6C_QwbLZkk2q1W2Ni-J5-74" value="Link" style="rounded=0;whiteSpace=wrap;html=1;fontSize=36;fillColor=default;" vertex="1" parent="1">
          <mxGeometry x="-1130" y="2820" width="260" height="50" as="geometry" />
        </mxCell>
        <mxCell id="6C_QwbLZkk2q1W2Ni-J5-75" value="Link" style="rounded=0;whiteSpace=wrap;html=1;fontSize=36;fillColor=default;" vertex="1" parent="1">
          <mxGeometry x="-1130" y="2900" width="260" height="50" as="geometry" />
        </mxCell>
        <mxCell id="6C_QwbLZkk2q1W2Ni-J5-76" value="Link" style="rounded=0;whiteSpace=wrap;html=1;fontSize=36;fillColor=default;" vertex="1" parent="1">
          <mxGeometry x="-1130" y="2980" width="260" height="50" as="geometry" />
        </mxCell>
        <mxCell id="6C_QwbLZkk2q1W2Ni-J5-77" value="Link" style="rounded=0;whiteSpace=wrap;html=1;fontSize=36;fillColor=default;" vertex="1" parent="1">
          <mxGeometry x="-830" y="2820" width="260" height="50" as="geometry" />
        </mxCell>
        <mxCell id="6C_QwbLZkk2q1W2Ni-J5-78" value="Link" style="rounded=0;whiteSpace=wrap;html=1;fontSize=36;fillColor=default;" vertex="1" parent="1">
          <mxGeometry x="-535" y="2820" width="260" height="50" as="geometry" />
        </mxCell>
        <mxCell id="6C_QwbLZkk2q1W2Ni-J5-79" value="Link" style="rounded=0;whiteSpace=wrap;html=1;fontSize=36;fillColor=default;" vertex="1" parent="1">
          <mxGeometry x="-230" y="2820" width="260" height="50" as="geometry" />
        </mxCell>
        <mxCell id="6C_QwbLZkk2q1W2Ni-J5-80" value="Link" style="rounded=0;whiteSpace=wrap;html=1;fontSize=36;fillColor=default;" vertex="1" parent="1">
          <mxGeometry x="-830" y="2980" width="260" height="50" as="geometry" />
        </mxCell>
        <mxCell id="6C_QwbLZkk2q1W2Ni-J5-81" value="Link" style="rounded=0;whiteSpace=wrap;html=1;fontSize=36;fillColor=default;" vertex="1" parent="1">
          <mxGeometry x="-830" y="2900" width="260" height="50" as="geometry" />
        </mxCell>
        <mxCell id="6C_QwbLZkk2q1W2Ni-J5-83" value="Link" style="rounded=0;whiteSpace=wrap;html=1;fontSize=36;fillColor=default;" vertex="1" parent="1">
          <mxGeometry x="-535" y="2980" width="260" height="50" as="geometry" />
        </mxCell>
        <mxCell id="6C_QwbLZkk2q1W2Ni-J5-84" value="Link" style="rounded=0;whiteSpace=wrap;html=1;fontSize=36;fillColor=default;" vertex="1" parent="1">
          <mxGeometry x="-535" y="2900" width="260" height="50" as="geometry" />
        </mxCell>
        <mxCell id="6C_QwbLZkk2q1W2Ni-J5-85" value="Link" style="rounded=0;whiteSpace=wrap;html=1;fontSize=36;fillColor=default;" vertex="1" parent="1">
          <mxGeometry x="-230" y="2980" width="260" height="50" as="geometry" />
        </mxCell>
        <mxCell id="6C_QwbLZkk2q1W2Ni-J5-86" value="Link" style="rounded=0;whiteSpace=wrap;html=1;fontSize=36;fillColor=default;" vertex="1" parent="1">
          <mxGeometry x="-230" y="2900" width="260" height="50" as="geometry" />
        </mxCell>
      </root>
    </mxGraphModel>
  </diagram>
</mxfile>
